<svg version="1.1" viewBox="0.0 0.0 960.0 960.0" fill="none" stroke="none" stroke-linecap="square" stroke-miterlimit="10" xmlns:xlink="http://www.w3.org/1999/xlink" xmlns="http://www.w3.org/2000/svg"><clipPath id="p.0"><path d="m0 0l960.0 0l0 960.0l-960.0 0l0 -960.0z" clip-rule="nonzero"/></clipPath><g clip-path="url(#p.0)"><path fill="#000000" fill-opacity="0.0" d="m0 0l960.0 0l0 960.0l-960.0 0z" fill-rule="evenodd"/><defs><linearGradient id="p.1" gradientUnits="userSpaceOnUse" gradientTransform="matrix(36.84623481280634 0.0 0.0 36.84623481280634 0.0 0.0)" spreadMethod="pad" x1="-13.027503030749385" y1="13.027027772340253" x2="13.026671606787742" y2="39.081298129369614"><stop offset="0.0" stop-color="#4c1130"/><stop offset="1.0" stop-color="#674ea7"/></linearGradient></defs><path fill="url(#p.1)" d="m-0.0144356955 -0.001312336l960.0 0l0 960.0l-960.0 0z" fill-rule="evenodd"/><path stroke="#000000" stroke-width="8.0" stroke-linejoin="round" stroke-linecap="butt" d="m-0.0144356955 -0.001312336l960.0 0l0 960.0l-960.0 0z" fill-rule="evenodd"/><path fill="#000000" fill-opacity="0.0" d="m238.74016 80.06036l482.51965 0l0 166.17323l-482.51965 0z" fill-rule="evenodd"/><path fill="#ffffff" d="m305.42926 130.74536l0 19.75l-24.0625 0l0 -19.75l24.0625 0zm0 33.3125l0 87.5625l-24.0625 0l0 -87.5625l24.0625 0zm48.029907 -33.3125l0 46.375l48.953125 0l0 -46.375l26.53125 0l0 120.875l-26.53125 0l0 -52.171875l-48.953125 0l0 52.171875l-26.625 0l0 -120.875l26.625 0zm151.88284 0q24.140656 0 39.109406 15.75q14.96875 15.75 14.96875 44.03125q0 28.265625 -14.640625 44.6875q-14.640625 16.40625 -39.43753 16.40625l-53.0 0l0 -120.875l53.0 0zm-2.0625 98.546875q12.7344055 0 21.12503 -9.125q8.390625 -9.140625 8.390625 -27.25q0 -20.921875 -8.765625 -30.375q-8.765625 -9.46875 -25.390656 -9.46875l-19.671875 0l0 76.21875l24.3125 0zm140.46103 -98.546875q14.640625 0 24.6875 9.421875q10.046875 9.421875 10.046875 23.984375q0 11.40625 -4.765625 18.890625q-4.75 7.484375 -14.421875 11.359375l0 0.328125q8.515625 2.234375 13.0625 10.171875q4.546875 7.9375 4.96875 24.3125q0.328125 16.375 4.703125 22.40625l-26.609375 0q-2.328125 -5.875 -3.15625 -19.015625q-1.234375 -17.859375 -5.984375 -23.015625q-4.75 -5.171875 -14.59375 -5.171875l-27.203125 0l0 47.203125l-26.625 0l0 -120.875l65.890625 0zm-9.578125 54.65625q8.34375 0 13.015625 -4.046875q4.671875 -4.0625 4.671875 -13.234375q0 -8.609375 -4.515625 -12.65625q-4.5 -4.046875 -13.171875 -4.046875l-29.6875 0l0 33.984375l29.6875 0z" fill-rule="nonzero"/><path fill="#ffffff" d="m407.21448 300.606l0 15.9375q0 3.03125 1.734375 4.828125q1.734375 1.78125 5.125 1.78125q3.203125 0 4.828125 -1.78125q1.625 -1.78125 1.625 -4.828125l0 -15.9375l3.28125 0l0 15.96875q0 4.359375 -2.453125 6.859375q-2.4375 2.5 -7.28125 2.5q-5.046875 0 -7.59375 -2.4375q-2.546875 -2.4375 -2.546875 -6.921875l0 -15.96875l3.28125 0zm30.308899 6.390625q0.09375 0 0.171875 0q0.09375 0 0.234375 0.015625l0 3.109375q-3.328125 0 -4.90625 1.765625q-1.578125 1.765625 -1.578125 5.4375l0 8.015625l-2.953125 0l0 -17.921875l2.78125 0l0 3.78125l0.0625 0q1.03125 -2.140625 2.546875 -3.171875q1.515625 -1.03125 3.640625 -1.03125zm5.728302 -6.390625l0 3.59375l-2.9375 0l0 -3.59375l2.9375 0zm0 6.8125l0 17.921875l-2.9375 0l0 -17.921875l2.9375 0zm23.390625 -6.8125q5.609375 0 8.640625 2.984375q3.046875 2.96875 3.046875 8.796875q0 6.546875 -3.0 9.75q-3.0 3.203125 -8.6875 3.203125l-8.6875 0l0 -24.734375l8.6875 0zm0.203125 21.953125q3.703125 0 5.9375 -2.40625q2.25 -2.421875 2.25 -7.3125q0 -4.90625 -2.046875 -7.1875q-2.03125 -2.28125 -6.03125 -2.28125l-5.71875 0l0 19.1875l5.609375 0zm22.354645 -15.546875q3.65625 0 5.1875 1.3125q1.5312195 1.296875 1.5312195 3.484375q0 9.3125 0 10.328125q0 1.015625 0.921875 1.015625q0.203125 0 0.4375 -0.046875q0.25 -0.046875 0.46875 -0.125l0 2.296875q-0.40625 0.234375 -0.9375 0.359375q-0.53125 0.125 -1.171875 0.125q-1.2187195 0 -1.8593445 -0.6875q-0.640625 -0.6875 -0.640625 -2.09375q-1.171875 1.390625 -2.765625 2.09375q-1.578125 0.6875 -3.546875 0.6875q-2.765625 0 -4.34375 -1.3125q-1.578125 -1.3125 -1.578125 -3.71875q0 -2.40625 1.53125 -3.8125q1.546875 -1.421875 7.25 -2.140625q1.9375 -0.25 2.609375 -0.734375q0.6875 -0.5 0.6875 -1.484375q0 -1.484375 -0.953125 -2.21875q-0.953125 -0.734375 -3.03125 -0.734375q-2.1875 0 -3.28125 0.828125q-1.09375 0.828125 -1.171875 2.5625l-2.9375 0q0.125 -2.96875 2.078125 -4.46875q1.96875 -1.515625 5.515625 -1.515625zm-5.1875 13.5q0 1.25 0.90625 1.953125q0.921875 0.6875 2.5625 0.6875q2.5 0 3.984375 -1.234375q1.484375 -1.234375 1.484375 -2.75l0 -3.078125q-0.734375 0.515625 -1.921875 0.703125q-1.1875 0.1875 -3.15625 0.453125q-1.953125 0.296875 -2.90625 1.078125q-0.953125 0.765625 -0.953125 2.1875zm25.395416 -13.515625q0.09375 0 0.171875 0q0.09375 0 0.234375 0.015625l0 3.109375q-3.328125 0 -4.90625 1.765625q-1.578125 1.765625 -1.578125 5.4375l0 8.015625l-2.953125 0l0 -17.921875l2.78125 0l0 3.78125l0.0625 0q1.03125 -2.140625 2.546875 -3.171875q1.515625 -1.03125 3.640625 -1.03125zm9.72702 0.015625q4.0625 0 6.375 2.625q2.3125 2.625 2.3125 6.765625q0 4.1875 -2.375 6.78125q-2.359375 2.578125 -6.3125 2.578125q-3.890625 0 -6.296875 -2.546875q-2.40625 -2.546875 -2.40625 -6.8125q0 -4.265625 2.34375 -6.828125q2.359375 -2.5625 6.359375 -2.5625zm-5.59375 9.390625q0 3.078125 1.578125 4.921875q1.578125 1.828125 4.015625 1.828125q2.421875 0 4.0 -1.84375q1.578125 -1.84375 1.578125 -4.90625q0 -3.0625 -1.578125 -4.921875q-1.5625 -1.875 -4.03125 -1.875q-2.375 0 -3.96875 1.84375q-1.59375 1.828125 -1.59375 4.953125zm26.384644 -9.390625q1.96875 0 3.203125 0.796875q1.25 0.796875 1.71875 2.25q0.921875 -1.4375 2.390625 -2.234375q1.46875 -0.8125 3.25 -0.8125q3.03125 0 4.484375 1.375q1.453125 1.375 1.453125 3.703125l0 13.25l-2.9375 0l0 -11.875q0 -1.9375 -0.828125 -2.890625q-0.8125 -0.96875 -2.640625 -0.96875q-2.203125 0 -3.4375 1.28125q-1.234375 1.28125 -1.234375 3.203125l0 11.25l-2.96875 0l0 -11.875q0 -1.9375 -0.8125 -2.890625q-0.8125 -0.96875 -2.53125 -0.96875q-1.40625 0 -2.5 0.671875q-1.078125 0.671875 -1.6875 1.859375q-0.609375 1.171875 -0.609375 1.984375l0 11.21875l-2.9375 0l0 -17.921875l2.765625 0l0 2.640625l0.078125 0q1.015625 -1.546875 2.453125 -2.296875q1.4375 -0.75 3.328125 -0.75z" fill-rule="nonzero"/><path fill="#ffffff" d="m721.0112 746.3081l-111.812805 -5.7507935l29.099548 -69.70239zm1.0819092 -201.20294l-83.526794 75.45453l-28.339417 -69.70599zm-140.71973 -142.26163l-6.324341 112.43924l-69.17807 -28.878052zm-200.12784 -0.023590088l74.59659 83.58658l-69.49182 28.86679zm-142.28159 142.25983l111.812805 5.7507935l-29.099518 69.70239zm-1.0948639 201.17114l83.53975 -75.42273l28.339417 69.70593zm140.73265 142.2934l6.3243713 -112.43927l69.17807 28.878113zm200.1149 -0.008239746l-74.58362 -83.55475l69.49182 -28.86676zm-219.24088 -293.14923l0 0c27.996918 -67.06128 104.64789 -98.90195 171.20474 -71.1181c66.55682 27.783813 97.815796 104.67102 69.81885 171.7323c-27.996887 67.06128 -104.64786 98.90192 -171.20471 71.1181c-66.55682 -27.783875 -97.815796 -104.67102 -69.81888 -171.7323z" fill-rule="evenodd"/></g></svg>